# xmcd
#
# Track frame offsets: 
#        300
#        13449
#        29447
#        44233
#        60454
#        77170
#        95768
#        115925
#        135558
#        161009
#        177746
#        195005
#        219091
#        236647
#        255926
#        269375
#        284823
#
# Disc length: 4081 seconds
#
# Revision: 0
# Processed by: cddbd v1.5.2PL0 Copyright (c) Steve Scherf et al.
# Submitted via: ExactAudioCopy v0.99pb5
#
DISCID=fc0fed11
DTITLE=Иван Кучин - Лучшие песни [CD2)
DYEAR=2009
DGENRE=Chanson
TTITLE0=Мостик
TTITLE1=Не уходи
TTITLE2=Сон
TTITLE3=Нищенка
TTITLE4=Черный ворон
TTITLE5=До свидания, друг
TTITLE6=Белый лебедь
TTITLE7=В таверне
TTITLE8=Хурустальная ваза
TTITLE9=Сыночек
TTITLE10=Спящий зверь
TTITLE11=Человек в Телогрейке
TTITLE12=Последнее письмо
TTITLE13=Крестовая печать
TTITLE14=Русь советская
TTITLE15=Чёрное прошлое
TTITLE16=У дороги рябина
EXTD=
EXTT0=
EXTT1=
EXTT2=
EXTT3=
EXTT4=
EXTT5=
EXTT6=
EXTT7=
EXTT8=
EXTT9=
EXTT10=
EXTT11=
EXTT12=
EXTT13=
EXTT14=
EXTT15=
EXTT16=
PLAYORDER=
